<svg id="Capa_1" enable-background="new 0 0 512 512" height="512" viewBox="0 0 512 512" width="512" xmlns="http://www.w3.org/2000/svg"><g><g><g><path d="m374.909 93.712h56.762v29.997h-56.762z" fill="#5f5166" transform="matrix(.707 -.707 .707 .707 41.251 317.01)"/></g><path d="m380.212 106.513h56.762v14.998h-56.762z" fill="#45354d" transform="matrix(.707 -.707 .707 .707 39.055 322.312)"/><g><path d="m256 451c-63.544 0-103.447-30.509-106.45-31.875l-14.033-42.642-42.643-14.033c-1.43-3.145-31.874-42.036-31.874-106.45 0-107.52 87.48-195 195-195s195 87.48 195 195-87.48 195-195 195z" fill="#ff7f40"/></g><path d="m149.55 419.125c3.003 1.366 42.906 31.875 106.45 31.875 107.52 0 195-87.48 195-195 0-53.76-21.87-102.51-57.18-137.82l-258.303 258.303z" fill="#f25a3c"/><g><path d="m256 391c-74.443 0-135-60.557-135-135s60.557-135 135-135 135 60.557 135 135-60.557 135-135 135z" fill="#f3f5f9"/></g><path d="m256 391c74.443 0 135-60.557 135-135 0-37.222-15.139-70.972-39.584-95.416l-190.832 190.832c24.444 24.445 58.194 39.584 95.416 39.584z" fill="#e1e6f0"/><g><path d="m256 331c-41.353 0-75-33.647-75-75s33.647-75 75-75 75 33.647 75 75-33.647 75-75 75z" fill="#ff7f40"/></g><path d="m256 331c41.353 0 75-33.647 75-75 0-20.676-8.412-39.426-21.993-53.007l-106.014 106.014c13.581 13.581 32.331 21.993 53.007 21.993z" fill="#f25a3c"/><g><path d="m447.367 154.823-34.878-55.313-55.313-34.878 154.824-64.632z" fill="#cfd7e6"/></g></g><path d="m447.367 154.823 64.633-154.823-99.511 99.511z" fill="#a3b1cc"/><path d="m164.5 368.5-24.463 3.116 3.463-24.116-64.2-21.001-79.3 78.6 64.9 21.301 24.437-3.089-3.436 24.089 21 64.6 78.6-79.3z" fill="#59abff"/><path d="m89.337 423.311-3.436 24.089 21 64.6 78.6-79.3-21.001-64.2-24.066 3.066-51.839 51.839z" fill="#4d87ff"/><path d="m266.5 266.5-180.6 180.9-10.65-10.65-10.35-10.35 180.6-180.9z" fill="#5f5166"/><path d="m266.5 266.5-180.6 180.9-10.65-10.65 180.75-180.75z" fill="#45354d"/></g></svg>